<svg width="72" height="44" viewBox="0 0 72 44" fill="none" xmlns="http://www.w3.org/2000/svg">
<path d="M72 21.9944C72 22.3424 71.8092 22.6793 71.4949 22.8364L61.4946 28.8431C61.3375 28.9329 61.1804 29.0003 60.9896 29.0003C60.8324 29.0003 60.6416 28.9666 60.4845 28.8768C60.1702 28.6859 59.9794 28.3715 59.9794 28.001V24.0041H33.1885C36.0281 28.4501 37.7341 36.0061 41.0002 36.0061H43.9969V32.9972C43.9969 32.4358 44.4346 31.998 44.9958 31.998H54.9961C55.5573 31.998 55.995 32.4358 55.995 32.9972V43.0008C55.995 43.5621 55.5573 44 54.9961 44H44.9958C44.4346 44 43.9969 43.5621 43.9969 43.0008V40.0031H41.0002C32.5375 40.0031 31.8977 24.0041 27.0042 24.0041H15.7468C14.8377 27.4397 11.7175 30.0107 8.00249 30.0107C3.59158 29.9995 0 26.4067 0 21.9944C0 17.582 3.59158 13.9893 8.00249 13.9893C11.7175 13.9893 14.8489 16.5491 15.7468 19.9959C20.1353 19.9959 20.674 21.0625 24.1197 13.2146C28.6204 3.21102 30.6407 3.99694 36.3423 3.99694C37.1841 1.65042 39.3727 0 41.9991 0C45.3101 0 48.0037 2.68334 48.0037 6.00663C48.0037 9.32993 45.3213 12.0133 41.9991 12.0133C39.3727 12.0133 37.1841 10.3516 36.3423 8.01633H32.9977C29.7316 8.01633 28.0256 15.5836 25.186 20.0184H59.9906V16.0214C59.9906 15.6509 60.1814 15.3366 60.4957 15.1457C60.81 14.9548 61.214 14.9885 61.4946 15.1794L71.4949 21.186C71.8092 21.3095 72 21.6463 72 21.9944Z" fill="white"/>
</svg>
