<svg width="72" height="48" viewBox="0 0 72 48" fill="none" xmlns="http://www.w3.org/2000/svg">
<path d="M72 30V42C72 45.3138 69.3138 48 66 48H6C2.68625 48 0 45.3138 0 42V30C0 26.6863 2.68625 24 6 24H66C69.3138 24 72 26.6863 72 30ZM66 20C67.3208 19.9988 68.6286 20.2608 69.8471 20.7706L57.7812 2.67175C57.2333 1.8499 56.4909 1.17603 55.62 0.709958C54.7491 0.243883 53.7766 1.56231e-05 52.7889 0H19.2111C18.2234 3.16366e-06 17.2509 0.243866 16.38 0.709943C15.5091 1.17602 14.7668 1.84989 14.2189 2.67175L2.15287 20.7706C3.37135 20.2608 4.67917 19.9988 6 20H66ZM60 32C57.7909 32 56 33.7909 56 36C56 38.2091 57.7909 40 60 40C62.2091 40 64 38.2091 64 36C64 33.7909 62.2091 32 60 32ZM48 32C45.7909 32 44 33.7909 44 36C44 38.2091 45.7909 40 48 40C50.2091 40 52 38.2091 52 36C52 33.7909 50.2091 32 48 32Z" fill="white"/>
</svg>
